PathFileType	4	(X/Y/Z)	C:\Users\Basilio\Documents\Thesis Gigler\squatting_fais\c3dfiles\047\SLS_pre_front3\markers_experimental.trc
DataRate	CameraRate	NumFrames	NumMarkers	Units	OrigDataRate	OrigDataStartFrame	OrigNumFrames
200.000000	200.000000	4	60	mm	200.000000	167	1340
Frame#	Time	FHD			LBHD			RBHD			C7			T10			CLAV			LSHO			LUUPA			LMUPA			LDUPA			LLEP			LMEP			LRAD			LUL			LRFIN			RSHO			RUPA1			RMUPA			RDUPA			RLEP			RMEP			RRAD			RUL			RUFIN			LASI			RASI			USACR			LSACR			RSACR			LTHI1			LTHI2			LTHI3			LTHI4			LLFC			LMFC			LTIB1			LTIB2			LTIB3			LTIB4			LLMAL			LMMAL			LMT1			LMT2			LMT5			RTHI			RTHI2			RTHI3			RTHI4			RLFC			RMFC			RTIB1			RTIB2			RTIB3			RTIB4			RLMAL			RMMAL			RHEE			RMT1			RMT2			RMT5			
		X1	Y1	Z1	X2	Y2	Z2	X3	Y3	Z3	X4	Y4	Z4	X5	Y5	Z5	X6	Y6	Z6	X7	Y7	Z7	X8	Y8	Z8	X9	Y9	Z9	X10	Y10	Z10	X11	Y11	Z11	X12	Y12	Z12	X13	Y13	Z13	X14	Y14	Z14	X15	Y15	Z15	X16	Y16	Z16	X17	Y17	Z17	X18	Y18	Z18	X19	Y19	Z19	X20	Y20	Z20	X21	Y21	Z21	X22	Y22	Z22	X23	Y23	Z23	X24	Y24	Z24	X25	Y25	Z25	X26	Y26	Z26	X27	Y27	Z27	X28	Y28	Z28	X29	Y29	Z29	X30	Y30	Z30	X31	Y31	Z31	X32	Y32	Z32	X33	Y33	Z33	X34	Y34	Z34	X35	Y35	Z35	X36	Y36	Z36	X37	Y37	Z37	X38	Y38	Z38	X39	Y39	Z39	X40	Y40	Z40	X41	Y41	Z41	X42	Y42	Z42	X43	Y43	Z43	X44	Y44	Z44	X45	Y45	Z45	X46	Y46	Z46	X47	Y47	Z47	X48	Y48	Z48	X49	Y49	Z49	X50	Y50	Z50	X51	Y51	Z51	X52	Y52	Z52	X53	Y53	Z53	X54	Y54	Z54	X55	Y55	Z55	X56	Y56	Z56	X57	Y57	Z57	X58	Y58	Z58	X59	Y59	Z59	X60	Y60	Z60	

168	0.835	-247.7160339355469	1737.35009765625	-1061.167114257813	-420.239471435547	1694.728637695313	-1104.64404296875	-412.1840820312501	1700.679565429688	-956.7623291015627	-439.628631591797	1510.079467773438	-1029.232788085938	-425.1964416503907	1197.641235351563	-1011.031372070313	-282.9540100097657	1473.398193359375	-1046.101806640625	-361.4361572265626	1499.599365234375	-1191.747680664063	-259.7852783203126	1436.9228515625	-1314.427978515625	-237.9709625244141	1481.552124023438	-1308.257446289063	-196.1329193115235	1452.005859375	-1338.236083984375	-138.3611297607422	1479.60400390625	-1355.557006835938	-103.6874923706055	1425.2783203125	-1307.930053710938	126.5031661987305	1523.339477539063	-1349.214599609375	110.0905075073242	1531.732177734375	-1424.562133789063	205.7479095458985	1551.286499023438	-1378.258056640625	-336.3448791503907	1518.234985351563	-900.250915527344	-198.458480834961	1467.87744140625	-792.8272705078127	-175.8401641845703	1506.868408203125	-814.2437744140627	-129.2148895263672	1474.502075195313	-793.7006835937502	-63.88828277587892	1496.310791015625	-802.464294433594	-48.5609588623047	1434.865600585938	-854.487976074219	195.7779846191407	1532.213256835938	-872.5977783203127	189.9962615966797	1539.922729492188	-798.467468261719	273.6091613769532	1558.507934570313	-858.8258056640627	-229.6922607421876	991.510925292969	-1105.538452148438	-230.183090209961	1015.766357421875	-876.215270996094	-419.934783935547	1061.775756835938	-1001.362426757813	-418.6529846191407	1027.715942382813	-1027.121337890625	-422.3312377929689	1032.840209960938	-968.5173950195315	-305.3532714843751	825.5562133789065	-1165.840087890625	-265.1318664550782	751.4479370117189	-1163.981811523438	-216.9250183105469	759.1816406250001	-1153.843139648438	-289.9740600585938	696.0413818359376	-1155.14306640625	-304.1142578125001	523.5820922851564	-1114.453369140625	-270.0653991699219	518.4990844726564	-995.9088134765627	-274.9545593261719	340.4490051269532	-1012.841918945313	-286.1003417968751	290.6590881347657	-1086.325561523438	-268.7012329101563	290.1165161132813	-1041.02001953125	-283.1688842773438	214.8464965820313	-1009.0947265625	-336.4929809570313	117.7599716186524	-1049.1845703125	-313.3346557617188	135.0218963623047	-963.6555175781252	-191.762680053711	62.76167678833009	-978.897644042969	-189.628890991211	59.44941329956056	-1023.6884765625	-237.8787384033204	44.35444259643555	-1068.833618164063	-221.8574829101563	853.5645141601565	-775.289489746094	-155.6057891845703	841.9967041015627	-780.282653808594	-135.3963470458985	864.6359863281252	-791.9284667968752	-118.3673706054688	767.3399047851564	-783.2756958007815	-11.79253101348877	666.8980102539064	-803.0898437500002	2.488233327865601	663.2019653320314	-927.8641357421877	86.72177886962892	578.5296020507814	-823.5106201171877	82.86201477050783	480.5144348144532	-773.2781982421877	117.43505859375	501.0466308593751	-796.709655761719	145.8861999511719	462.7552185058595	-829.4920654296877	174.9590301513672	306.5221557617188	-787.2325439453127	180.0797271728516	321.0558166503907	-877.7386474609377	132.3896789550782	246.8532104492188	-828.5915527343752	328.6816101074219	307.5574035644532	-878.7713623046877	334.3627014160157	319.9484863281251	-835.3328247070315	307.9575500488282	284.9400329589844	-771.537780761719	
169	0.84	-247.6759643554688	1737.33984375	-1061.084106445313	-420.574676513672	1695.044311523438	-1104.500854492188	-412.1985473632814	1700.657470703125	-956.692077636719	-439.6600036621095	1510.063354492188	-1029.170288085938	-425.1940917968751	1197.645874023438	-1011.031433105469	-283.0670166015626	1473.31884765625	-1046.058959960938	-361.2813415527344	1499.565551757813	-1191.597900390625	-259.6596069335938	1436.955810546875	-1314.44140625	-237.9805145263672	1481.611083984375	-1308.145629882813	-196.104721069336	1452.113403320313	-1338.110961914063	-138.3619537353516	1479.70703125	-1355.51953125	-103.5558471679688	1425.310913085938	-1307.918823242188	126.1273574829102	1523.173461914063	-1349.2529296875	110.0313796997071	1531.752197265625	-1424.685791015625	205.6768188476563	1551.16259765625	-1378.379150390625	-336.3226623535157	1518.191284179688	-900.1977539062502	-198.4600524902344	1467.806762695313	-792.8508911132815	-175.8643493652344	1506.864013671875	-814.1752929687502	-129.1258392333985	1474.498779296875	-793.710876464844	-64.01330566406251	1496.244873046875	-802.255554199219	-48.60875320434572	1434.816528320313	-854.451599121094	195.4546051025391	1532.6015625	-872.455017089844	189.9016571044922	1539.778564453125	-798.3026123046877	273.4977111816407	1558.5400390625	-858.7004394531252	-229.6771392822266	991.460632324219	-1105.556274414063	-230.2196960449219	1015.728515625	-876.0354614257815	-419.9463500976564	1061.7587890625	-1001.334533691406	-418.673553466797	1027.6875	-1027.121337890625	-422.3807678222657	1032.85107421875	-968.5227050781252	-305.3065185546876	825.5297851562502	-1165.834228515625	-264.9929199218751	751.3888549804689	-1163.979858398438	-216.8700714111329	759.1428833007814	-1153.7568359375	-289.8157348632813	696.0123291015626	-1155.162109375	-304.0796508789063	523.5851440429689	-1114.492309570313	-270.1062316894532	518.4877929687501	-995.872009277344	-275.0015563964844	340.3756103515626	-1012.835876464844	-286.0057983398438	290.6666564941407	-1086.278076171875	-268.5070495605469	289.8713378906251	-1041.063232421875	-283.1588134765626	214.8459014892579	-1009.032165527344	-336.3985290527344	117.7148513793946	-1049.209350585938	-313.3432922363282	135.0204467773438	-963.632507324219	-191.7525939941407	62.77921295166017	-978.9082031250002	-189.5665283203125	59.46605682373048	-1023.723327636719	-237.8911590576172	44.37950515747071	-1068.878173828125	-221.8605651855469	853.5170898437502	-775.279235839844	-155.6648406982422	841.9821777343752	-780.236999511719	-135.3699798583985	864.6357421875002	-791.9561157226565	-118.3037261962891	767.3309326171876	-783.329040527344	-11.78290557861328	666.9153442382814	-803.1010742187502	2.550964832305909	663.2210083007814	-927.851013183594	86.71899414062501	578.5474243164064	-823.4930419921877	83.06531524658205	480.4121093750001	-773.2509765625002	117.616813659668	501.0648498535157	-796.8621215820315	146.1246185302735	462.9336242675782	-829.8730468750002	175.1657409667969	306.5938415527344	-787.3079833984377	180.4703979492188	321.2675476074219	-877.908142089844	132.8044128417969	246.662582397461	-828.815612792969	328.2862854003907	308.1824645996094	-878.9155273437502	334.3858032226563	319.9562072753907	-835.0145263671877	308.0585327148438	285.1153564453126	-771.5072021484377	
170	0.845	-248.1976470947266	1736.908935546875	-1060	-420.5562133789064	1695.054931640625	-1104.430541992188	-412.2289123535157	1700.636108398438	-956.5629882812502	-439.6087951660157	1510.066284179688	-1029.12353515625	-425.0939025878907	1197.638793945313	-1011.022827148438	-282.9451293945313	1473.284057617188	-1045.97265625	-361.2771911621094	1499.59765625	-1191.585693359375	-259.6491394042969	1437.006103515625	-1314.368408203125	-237.9179229736329	1481.669555664063	-1308.114135742188	-196.1946258544922	1452.161254882813	-1338.09814453125	-138.2873840332032	1479.728881835938	-1355.569946289063	-103.5025634765625	1425.365600585938	-1307.97607421875	126.199333190918	1523.109252929688	-1349.508056640625	110.1011581420899	1531.773071289063	-1424.938720703125	205.6607055664063	1551.08154296875	-1378.635498046875	-336.3194580078126	1518.11767578125	-900.127380371094	-198.4285888671876	1467.761840820313	-792.7823486328127	-175.8295288085938	1506.79052734375	-814.0906372070315	-129.263427734375	1474.423095703125	-793.561218261719	-63.99929809570314	1496.223510742188	-802.2463989257815	-48.63629531860353	1434.764282226563	-854.4522705078127	195.5024108886719	1532.582275390625	-872.4213867187502	189.8970336914063	1539.789794921875	-798.2995605468752	273.5347900390626	1558.615478515625	-858.743591308594	-229.6024627685547	991.4512939453127	-1105.43408203125	-230.1682586669922	1015.748229980469	-876.0963134765627	-419.8958435058595	1061.745849609375	-1001.343200683594	-418.8006896972657	1027.747192382813	-1027.115600585938	-422.4500427246095	1032.83154296875	-968.5213012695315	-305.1519470214844	825.5039062500002	-1165.8701171875	-264.8595581054688	751.4220581054689	-1163.918090820313	-216.6280212402344	759.1234741210939	-1153.717041015625	-289.7596740722657	696.0077514648439	-1155.166381835938	-303.8949890136719	523.5640258789064	-1114.490966796875	-270.2940979003907	518.4336547851564	-995.7197875976565	-275.0547790527344	340.3777465820313	-1012.752685546875	-285.8663940429688	290.6756591796876	-1086.2275390625	-268.5707397460938	290.1569824218751	-1040.8828125	-283.1679687500001	214.836410522461	-1008.921447753906	-336.3584899902344	117.7221298217774	-1049.24853515625	-313.3457031250001	134.9621887207032	-963.5899047851565	-191.5938110351563	62.77664947509767	-978.993835449219	-189.4947204589844	59.49628067016603	-1023.681945800781	-237.8323211669922	44.38372039794923	-1068.915771484375	-221.8606109619141	853.505065917969	-775.1977539062502	-155.6708374023438	841.950134277344	-780.1668701171877	-135.4129028320313	864.584411621094	-791.8733520507815	-118.2948532104492	767.2843017578126	-783.3545532226565	-11.73022556304932	666.9537963867189	-803.131286621094	2.574693202972413	663.2941284179689	-927.8455810546877	86.8964080810547	578.6600341796876	-823.5989379882815	83.23007202148439	480.3719177246095	-773.4106445312502	117.7428970336914	501.1495666503907	-796.8435668945315	146.2129364013672	463.0021362304689	-829.916442871094	175.2999267578125	306.6790466308594	-787.320739746094	180.6751556396485	321.4170227050782	-878.0715942382815	132.635971069336	247.0280914306641	-828.688171386719	328.5188903808594	308.2843627929688	-878.8147583007815	334.5996398925782	320.2488403320313	-835.2385253906252	308.2840270996094	285.2687988281251	-771.677429199219	
171	0.85	-247.5762634277344	1737.32421875	-1060.916870117188	-420.5966186523439	1695.089599609375	-1104.358032226563	-412.1579589843751	1700.645874023438	-956.5081176757815	-439.6427612304689	1510.05029296875	-1029.055053710938	-425.1962890625001	1197.642333984375	-1011.034606933594	-282.9812316894532	1473.310791015625	-1045.907592773438	-361.3735656738282	1499.606079101563	-1191.537231445313	-259.6407775878907	1437.101440429688	-1314.36572265625	-237.8303375244141	1481.721557617188	-1308.054565429688	-196.1445465087891	1452.232177734375	-1338.08251953125	-138.2602844238282	1479.7421875	-1355.60205078125	-103.5742874145508	1425.43115234375	-1307.949584960938	126.2405395507813	1523.10693359375	-1349.750732421875	109.9796905517578	1531.825927734375	-1424.988159179688	205.8530273437501	1551.016723632813	-1379.067749023438	-336.2962646484376	1518.132690429688	-900.0731201171877	-198.4550323486329	1467.734252929688	-792.7719726562502	-175.8311004638672	1506.838989257813	-814.1160888671877	-129.3780670166016	1474.3876953125	-793.3899536132815	-64.0072708129883	1496.174682617188	-802.1944580078127	-48.70333480834962	1434.757202148438	-854.3054809570315	195.4202575683594	1532.575561523438	-872.3476562500002	189.8738403320313	1539.7900390625	-798.108337402344	273.5107727050782	1558.6435546875	-858.6990356445315	-229.5031890869141	991.4753417968752	-1105.443481445313	-230.1694030761719	1015.73974609375	-875.9683837890627	-419.8942871093751	1061.755126953125	-1001.340881347656	-418.7240600585939	1027.717651367188	-1027.085083007813	-422.4669494628907	1032.808959960938	-968.4801025390627	-305.1177978515626	825.5001220703127	-1165.858520507813	-264.7272338867188	751.3763427734376	-1163.879150390625	-216.6339416503907	759.1417236328126	-1153.724609375	-289.6702880859376	696.0181274414064	-1155.123413085938	-303.8851928710938	523.5737304687501	-1114.468994140625	-270.3593139648438	518.3743896484376	-995.668395996094	-275.1343078613282	340.4063720703126	-1012.602355957031	-285.8279418945313	290.5804748535157	-1086.129272460938	-268.3678588867188	289.8976135253907	-1040.972412109375	-283.1809692382813	214.8489990234376	-1008.748107910156	-336.3548278808594	117.7440795898438	-1049.249389648438	-313.3620910644532	134.9148101806641	-963.5297851562502	-191.7264862060547	62.61819458007814	-978.9031372070315	-189.5790710449219	59.47425842285158	-1023.644470214844	-237.7684478759766	44.41682815551759	-1068.9052734375	-221.8830566406251	853.472351074219	-775.2269287109377	-155.693344116211	841.9291992187502	-780.115905761719	-135.396240234375	864.595642089844	-791.8929443359377	-118.3346862792969	767.2001953125001	-783.2910156250002	-11.71980571746826	666.9445190429689	-803.104675292969	2.664375066757203	663.3427734375001	-927.7717895507815	86.96228027343751	578.6630859375001	-823.6346435546877	83.3729705810547	480.4368591308595	-773.463073730469	117.7510757446289	501.177459716797	-796.796813964844	146.3688354492188	463.1804809570314	-829.9033813476565	175.4750671386719	306.6851501464844	-787.4249267578127	180.9470367431641	321.5320434570313	-878.1570434570315	132.7212829589844	247.1292266845704	-828.7556762695315	328.8768920898438	308.4776611328126	-878.8298950195315	334.8651733398438	320.4276733398438	-835.461853027344	308.5557861328126	285.3845214843751	-771.9705200195315	
